<svg xmlns="http://www.w3.org/2000/svg" xmlns:xlink="http://www.w3.org/1999/xlink" viewBox="0 0 100 100" version="1.1" x="0px" y="0px"><g stroke="none" stroke-width="1" fill="none" fill-rule="evenodd"><path d="M83.3198662,49.9024749 C83.3198662,49.9024749 68.4021405,30.1446154 50,30.1446154 C31.5978595,30.1446154 16.6801338,49.9024749 16.6801338,49.9024749 C16.6801338,49.9024749 31.5978595,69.8553846 50,69.8553846 C68.4021405,69.8553846 83.3198662,49.9024749 83.3198662,49.9024749 M95,50 C95,74.8532441 74.8520401,95 50,95 C25.1467559,95 5,74.8532441 5,50 C5,25.1467559 25.1467559,5 50,5 C74.8520401,5 95,25.1467559 95,50 M60.6350502,50 C60.6350502,55.8731773 55.8731773,60.6350502 50,60.6350502 C44.1256187,60.6350502 39.3649498,55.8731773 39.3649498,50 C39.3649498,44.1268227 44.1256187,39.3649498 50,39.3649498 C55.8731773,39.3649498 60.6350502,44.1268227 60.6350502,50" fill="#000000"/></g></svg>